<?xml version="1.0" standalone="no"?>
<!DOCTYPE svg PUBLIC "-//W3C//DTD SVG 20010904//EN"
 "http://www.w3.org/TR/2001/REC-SVG-20010904/DTD/svg10.dtd">
<svg version="1.0" xmlns="http://www.w3.org/2000/svg"
 width="299.000000pt" height="422.000000pt" viewBox="0 0 299.000000 422.000000"
 preserveAspectRatio="xMidYMid meet">

<g transform="translate(0.000000,422.000000) scale(0.100000,-0.100000)"
fill="#000000" stroke="none">
<path style="stroke:#5a0000;stroke-width:5.7;fill:#f41922" d="M1365 4214 c-197 -22 -346 -64 -520 -149 -162 -79 -281 -163 -404
-286 -375 -375 -524 -922 -391 -1434 116 -442 608 -1267 1252 -2097 69 -90
142 -181 162 -203 l36 -40 31 35 c59 66 415 546 551 740 414 595 713 1125 829
1470 57 171 72 268 73 455 0 272 -39 448 -154 680 -150 304 -372 525 -675 675
-213 105 -385 148 -620 154 -71 2 -148 2 -170 0z m330 -503 c198 -41 365 -131
506 -271 215 -213 308 -452 296 -760 -7 -199 -57 -356 -164 -517 -123 -186
-333 -340 -559 -410 -84 -26 -100 -27 -279 -27 -178 0 -195 2 -278 27 -338
104 -585 346 -692 677 -24 73 -28 107 -32 241 -6 166 6 257 49 384 92 270 317
503 583 606 177 69 390 87 570 50z"/>
</g>
</svg>
